<svg id="Capa_1" data-name="Capa 1" xmlns="http://www.w3.org/2000/svg" xmlns:xlink="http://www.w3.org/1999/xlink" viewBox="0 0 356.24 48.21"><defs><style>.cls-1,.cls-2{fill:none;}.cls-1{clip-rule:evenodd;}.cls-3{fill:#002a53;}.cls-4{clip-path:url(#clip-path);}.cls-5{fill:url(#linear-gradient);}.cls-6{clip-path:url(#clip-path-2);}.cls-7{fill:url(#linear-gradient-2);}.cls-8,.cls-9{fill:#fff;}.cls-8{fill-rule:evenodd;}.cls-10{fill:#808285;}.cls-11{font-size:14.93px;fill:#43798f;font-family:ArialMT, Arial;}</style><clipPath id="clip-path" transform="translate(-23.81 -30.35)"><path class="cls-1" d="M39.64,31.14h21.2a15.09,15.09,0,0,1,15,15V62.72a15.09,15.09,0,0,1-15,15H39.64a15.09,15.09,0,0,1-15-15V46.19a15.09,15.09,0,0,1,15-15"/></clipPath><linearGradient id="linear-gradient" x1="26.43" y1="0.79" x2="26.43" y2="47.42" gradientUnits="userSpaceOnUse"><stop offset="0" stop-color="#0095da"/><stop offset="0.16" stop-color="#0095da"/><stop offset="0.52" stop-color="#004a80"/><stop offset="1" stop-color="#002257"/></linearGradient><clipPath id="clip-path-2" transform="translate(-23.81 -30.35)"><path class="cls-2" d="M60.84,31.93H39.64A14.27,14.27,0,0,0,25.39,46.18V62.72A14.27,14.27,0,0,0,39.64,77h21.2A14.2,14.2,0,0,0,70.9,72.79h0a14.2,14.2,0,0,0,4.18-10.06V46.18a14.2,14.2,0,0,0-4.18-10.06h0a14.24,14.24,0,0,0-10.07-4.18m-21.2-1.58h21.2A15.79,15.79,0,0,1,72,35h0a15.81,15.81,0,0,1,4.65,11.18V62.72A15.89,15.89,0,0,1,60.84,78.55H39.64A15.88,15.88,0,0,1,23.81,62.72V46.18A15.79,15.79,0,0,1,28.46,35h0A15.77,15.77,0,0,1,39.64,30.35Z"/></clipPath><linearGradient id="linear-gradient-2" y1="24.1" x2="52.87" y2="24.1" gradientUnits="userSpaceOnUse"><stop offset="0" stop-color="#d9dbdc"/><stop offset="0.23" stop-color="#ebecec"/><stop offset="0.49" stop-color="#eeeeef"/><stop offset="0.73" stop-color="#e6e7e8"/><stop offset="1" stop-color="#d9dbdc"/></linearGradient></defs><title>Logo Manufacturas AF</title><path class="cls-3" d="M320.45,47.37H308.18v7H318.8V57H308.18V67.25h-2.94V44.71h15.21ZM302.73,67.25h-3.36l-2.61-6.86H287.3l-2.51,6.86h-3.14l8.67-22.54h3.21ZM295.87,58l-4-10.46L288.09,58Zm-27.24,9.63q-6.69,0-7-5.28h2.92c0,2,1.38,3,4.06,3a4.48,4.48,0,0,0,2.77-.7,2.26,2.26,0,0,0,.9-1.91,1.87,1.87,0,0,0-.18-.87,1.62,1.62,0,0,0-.69-.65,8,8,0,0,0-1.45-.55c-.63-.19-1.43-.41-2.43-.67a24,24,0,0,1-2.49-.7,6.51,6.51,0,0,1-1.73-.89,3.17,3.17,0,0,1-1-1.27,4.81,4.81,0,0,1-.32-1.88,4.18,4.18,0,0,1,.43-1.87,4.37,4.37,0,0,1,1.22-1.47,6.43,6.43,0,0,1,1.94-1,8.38,8.38,0,0,1,2.54-.36c4.25,0,6.42,1.53,6.54,4.58h-2.91c-.09-1.55-1.24-2.33-3.47-2.33a5.91,5.91,0,0,0-1.28.13,4,4,0,0,0-1.09.4,2.14,2.14,0,0,0-.74.69,1.71,1.71,0,0,0-.26,1,3,3,0,0,0,.09.8,1.12,1.12,0,0,0,.53.56,5.52,5.52,0,0,0,1.33.51c.6.17,1.43.38,2.49.64a25.79,25.79,0,0,1,2.56.74,6.58,6.58,0,0,1,1.82.92,3.24,3.24,0,0,1,1.09,1.35,4.57,4.57,0,0,1,.37,2,4.63,4.63,0,0,1-.45,2,4.75,4.75,0,0,1-1.31,1.63,6.39,6.39,0,0,1-2.07,1.11A8.58,8.58,0,0,1,268.63,67.64Zm-13-2.07a8,8,0,0,1-5.73,2.07,7,7,0,0,1-2.23-.34,5.74,5.74,0,0,1-1.78-1,4.45,4.45,0,0,1-1.16-1.49,4.38,4.38,0,0,1-.42-1.94q0-5.73,9.89-5.73h1.43a18.08,18.08,0,0,0-.1-2,2.86,2.86,0,0,0-.49-1.36,2.19,2.19,0,0,0-1.16-.8,7.33,7.33,0,0,0-2.17-.25q-3.88,0-4,2.77h-2.88q.36-5,7.07-5a13.91,13.91,0,0,1,2.78.26,5.14,5.14,0,0,1,2.09.94A4.21,4.21,0,0,1,258,53.62a9.12,9.12,0,0,1,.44,3.07V67.25h-2.86Zm0-2.61V59.33h-2c-4.2,0-6.31,1.16-6.31,3.46a2.18,2.18,0,0,0,.91,1.92,4.34,4.34,0,0,0,2.51.62,6.53,6.53,0,0,0,1.4-.15,5.53,5.53,0,0,0,1.33-.47,7.11,7.11,0,0,0,1.18-.74A4.89,4.89,0,0,0,255.62,63Zm-12.4-9.39a6.37,6.37,0,0,0-1.78-.2,4.63,4.63,0,0,0-3.79,2.32V67.25h-2.92V50.9h2.92v2.31a5.06,5.06,0,0,1,4.25-2.65c.22,0,.43,0,.64,0a6.07,6.07,0,0,1,.68.09Zm-15.68,11.6a6.4,6.4,0,0,1-4.87,2.47q-5.55,0-5.55-6V50.9H220V61.49a4.59,4.59,0,0,0,.71,2.87,2.82,2.82,0,0,0,2.34.87c1.59,0,3.08-.87,4.46-2.63V50.9h2.87V67.25h-2.87Zm-12.76,2.1a7.07,7.07,0,0,1-1,.16c-.34,0-.7,0-1.09,0a5.34,5.34,0,0,1-2.14-.34,2.42,2.42,0,0,1-1.15-1,3.76,3.76,0,0,1-.46-1.58c-.06-.61-.08-1.31-.08-2.09V53.21h-2V50.9h2v-4h2.88v4h2.66v2.31h-2.66V62.6a7.13,7.13,0,0,0,.1,1.36,1.86,1.86,0,0,0,.32.79,1,1,0,0,0,.51.36,2.59,2.59,0,0,0,.66.08c.26,0,.5,0,.74,0a6.34,6.34,0,0,0,.72-.08Zm-15.5.37a8.15,8.15,0,0,1-3.1-.56,6.52,6.52,0,0,1-2.42-1.63,7.43,7.43,0,0,1-1.56-2.68,11.43,11.43,0,0,1-.54-3.67,11.56,11.56,0,0,1,.54-3.69,7.34,7.34,0,0,1,1.56-2.66,6.64,6.64,0,0,1,2.42-1.63,8.34,8.34,0,0,1,3.1-.56,8.14,8.14,0,0,1,2.55.37,6,6,0,0,1,2,1,5.37,5.37,0,0,1,1.37,1.66,6.17,6.17,0,0,1,.67,2.19h-3a3.16,3.16,0,0,0-.35-1.29,2.81,2.81,0,0,0-.8-.94,3.36,3.36,0,0,0-1.13-.58,4.51,4.51,0,0,0-1.33-.2,4.24,4.24,0,0,0-1.9.41,4,4,0,0,0-1.49,1.21,5.73,5.73,0,0,0-.94,2,9.63,9.63,0,0,0-.34,2.7,7.43,7.43,0,0,0,1.24,4.67,4.14,4.14,0,0,0,3.43,1.56,4.85,4.85,0,0,0,1.33-.17,3.27,3.27,0,0,0,1.13-.53,2.61,2.61,0,0,0,.8-.91,3.28,3.28,0,0,0,.35-1.36h3a5.77,5.77,0,0,1-.71,2.27,5.32,5.32,0,0,1-1.43,1.66,6.55,6.55,0,0,1-2,1A8.35,8.35,0,0,1,199.28,67.64Zm-13.81-2.07a8,8,0,0,1-5.72,2.07,7,7,0,0,1-2.23-.34,5.63,5.63,0,0,1-1.78-1,4.36,4.36,0,0,1-1.17-1.49,4.52,4.52,0,0,1-.41-1.94q0-5.73,9.89-5.73h1.42a15.84,15.84,0,0,0-.1-2,2.86,2.86,0,0,0-.48-1.36,2.27,2.27,0,0,0-1.16-.8,7.37,7.37,0,0,0-2.17-.25c-2.59,0-3.94.92-4,2.77h-2.88q.36-5,7.06-5a13.83,13.83,0,0,1,2.78.26,5.18,5.18,0,0,1,2.1.94,4.12,4.12,0,0,1,1.3,1.86,8.85,8.85,0,0,1,.45,3.07V67.25h-2.87Zm0-2.61V59.33h-2c-4.21,0-6.31,1.16-6.31,3.46a2.18,2.18,0,0,0,.91,1.92,4.34,4.34,0,0,0,2.51.62,6.59,6.59,0,0,0,1.4-.15,5.61,5.61,0,0,0,1.32-.47,7.2,7.2,0,0,0,1.19-.74A4.84,4.84,0,0,0,185.47,63Zm-15.71-9.75v14h-2.88v-14h-2.41V50.9h2.41V49.49c0-3.46,1.51-5.18,4.55-5.18q.73,0,1.29,0a3.43,3.43,0,0,1,.89.13V47a3.76,3.76,0,0,0-.86-.14h-.91a2,2,0,0,0-1.58.57,3.1,3.1,0,0,0-.5,2V50.9h3.11v2.31Zm-10.59,12a6.44,6.44,0,0,1-4.88,2.47c-3.7,0-5.54-2-5.54-6V50.9h2.91V61.49a4.6,4.6,0,0,0,.7,2.87,2.84,2.84,0,0,0,2.35.87c1.59,0,3.08-.87,4.46-2.63V50.9H162V67.25h-2.86ZM134.17,53a7.17,7.17,0,0,1,2.29-1.86,5.88,5.88,0,0,1,2.58-.59c3.7,0,5.55,2,5.55,6V67.25h-2.93V56.69a4.72,4.72,0,0,0-.7-2.88,2.86,2.86,0,0,0-2.36-.88q-2.23,0-4.43,2.61V67.25h-2.91V50.9h2.91ZM124.06,65.57a8,8,0,0,1-5.72,2.07,7,7,0,0,1-2.23-.34,5.58,5.58,0,0,1-1.77-1,4.36,4.36,0,0,1-1.17-1.49,4.53,4.53,0,0,1-.42-1.94q0-5.73,9.89-5.73h1.42a18.34,18.34,0,0,0-.09-2,3,3,0,0,0-.48-1.36,2.26,2.26,0,0,0-1.17-.8,7.28,7.28,0,0,0-2.17-.25c-2.59,0-3.94.92-4,2.77h-2.88q.34-5,7.06-5a13.73,13.73,0,0,1,2.77.26,5.12,5.12,0,0,1,2.1.94,4.12,4.12,0,0,1,1.3,1.86,8.85,8.85,0,0,1,.45,3.07V67.25h-2.87Zm0-2.61V59.33h-2c-4.21,0-6.32,1.16-6.32,3.46a2.2,2.2,0,0,0,.91,1.92,4.34,4.34,0,0,0,2.51.62,6.53,6.53,0,0,0,1.4-.15,5.69,5.69,0,0,0,1.33-.47A7.55,7.55,0,0,0,123.1,64,4.84,4.84,0,0,0,124.06,63Zm-15,4.29h-2.88V48.07L99.8,67.25H97.09L90.67,48.07V67.25H87.88V44.71H92.3l6.16,18.78,6.12-18.78h4.51Z" transform="translate(-23.81 -30.35)"/><g class="cls-4"><rect class="cls-5" x="0.79" y="0.79" width="51.29" height="46.63"/></g><g class="cls-6"><rect class="cls-7" width="52.87" height="48.21"/></g><path class="cls-8" d="M36.55,54.68H63.4c0,1.5-.54,4.52-2.48,4.49H39c-2,0-2.48-3-2.48-4.49" transform="translate(-23.81 -30.35)"/><path class="cls-9" d="M30.68,50.25c0,.22,0,.44,0,.66l4,.05c0-.9.07-1.88.16-2.85.31-2.9,1.22-5.67,4.68-5.67a5.08,5.08,0,0,1,2.82.75A3.86,3.86,0,0,1,44,45.24a14,14,0,0,1,.44,4.12V65.6c0,2.73,2,6.3,4.35,6.46V49.6a16.49,16.49,0,0,0-1-6.4,7.18,7.18,0,0,0-3.16-3.46,10.45,10.45,0,0,0-5.08-1.2c-3.54,0-5.8,1.35-7.15,3.49s-1.79,5.06-1.73,8.22m38.59,0c0,.22,0,.44,0,.66l-4,.05a19.83,19.83,0,0,0-.75-5.61,4,4,0,0,0-4.09-2.91,5.08,5.08,0,0,0-2.82.75A3.81,3.81,0,0,0,56,45.24a13.6,13.6,0,0,0-.45,4.12V65.6c0,2.73-2,6.3-4.34,6.46V49.6a16.3,16.3,0,0,1,1-6.4,7.18,7.18,0,0,1,3.16-3.46,10.45,10.45,0,0,1,5.08-1.2c3.54,0,5.79,1.35,7.14,3.49S69.33,47.09,69.27,50.25Z" transform="translate(-23.81 -30.35)"/><rect class="cls-10" x="310.01" y="11.53" width="0.76" height="29.11"/><text class="cls-11" transform="translate(322.21 33.99)">SAS.</text></svg>